<?xml version="1.0" standalone="no"?>
<!DOCTYPE svg PUBLIC "-//W3C//DTD SVG 20010904//EN"
 "http://www.w3.org/TR/2001/REC-SVG-20010904/DTD/svg10.dtd">
<svg version="1.0" xmlns="http://www.w3.org/2000/svg"
 width="500.000000pt" height="500.000000pt" viewBox="0 0 500.000000 500.000000"
 preserveAspectRatio="xMidYMid meet">
<metadata>
Created by potrace 1.14, written by Peter Selinger 2001-2017
</metadata>
<g transform="translate(0.000000,500.000000) scale(0.100000,-0.100000)"
fill="#000000" stroke="none">
<path d="M2293 4958 c-6 -7 -35 -49 -65 -93 -72 -104 -303 -434 -322 -460 -8
-11 -62 -87 -120 -170 -57 -82 -109 -155 -115 -162 -6 -7 -11 -15 -11 -18 0
-3 -5 -11 -11 -18 -5 -7 -59 -82 -119 -167 -60 -85 -112 -159 -117 -165 -4 -5
-34 -48 -66 -95 -32 -47 -82 -119 -111 -160 -107 -152 -516 -736 -529 -754 -6
-10 -19 -28 -28 -40 -9 -11 -106 -149 -216 -306 -274 -391 -304 -434 -364
-518 -29 -41 -52 -79 -52 -85 0 -7 25 -48 55 -92 30 -44 121 -179 203 -300
274 -406 308 -455 316 -455 4 0 36 16 71 36 57 33 399 225 508 286 25 14 119
67 210 118 193 109 371 209 675 380 121 67 231 130 245 138 14 9 55 32 91 52
36 19 77 43 90 52 23 16 23 17 2 13 -11 -2 -43 -7 -70 -11 -26 -3 -57 -8 -68
-10 -10 -2 -37 -6 -60 -9 -22 -3 -80 -12 -130 -20 -142 -22 -163 -25 -202 -30
-21 -3 -51 -7 -68 -10 -16 -3 -48 -7 -70 -10 -22 -3 -65 -10 -95 -15 -30 -5
-68 -11 -85 -14 -16 -2 -48 -7 -70 -11 -22 -3 -53 -7 -70 -9 -16 -2 -93 -14
-170 -26 -77 -11 -158 -23 -180 -26 -22 -3 -66 -10 -99 -15 -32 -6 -60 -8 -62
-6 -3 3 53 87 123 188 70 102 141 205 158 229 16 25 32 47 35 50 3 3 17 23 32
45 31 47 266 386 298 430 34 47 287 412 343 495 28 41 54 77 57 80 3 3 16 22
30 42 l24 36 13 -36 c14 -42 183 -579 218 -692 13 -41 36 -113 51 -160 15 -47
28 -89 30 -95 2 -14 162 -521 179 -570 7 -22 32 -101 55 -175 23 -74 44 -142
47 -150 3 -8 7 -19 8 -25 2 -5 40 -127 85 -270 78 -245 120 -380 175 -555 97
-308 175 -553 181 -570 3 -8 16 23 29 70 13 47 39 141 59 210 20 69 39 132 41
140 2 8 18 65 35 125 18 61 33 117 35 125 2 8 28 98 58 200 30 102 87 300 127
440 40 140 76 263 81 272 8 14 12 15 36 3 16 -7 46 -21 68 -30 22 -9 49 -21
60 -26 11 -5 74 -31 140 -59 66 -28 121 -53 123 -55 2 -2 -96 -165 -219 -361
-123 -197 -231 -369 -239 -383 -8 -14 -17 -28 -20 -31 -3 -3 -19 -27 -35 -54
-17 -27 -37 -61 -45 -75 -9 -14 -37 -59 -63 -99 -26 -40 -47 -76 -47 -81 0 -5
-3 -11 -7 -13 -5 -1 -26 -32 -47 -68 -22 -36 -64 -102 -93 -147 -29 -45 -53
-85 -53 -88 0 -11 74 54 300 265 21 19 75 69 121 111 46 43 100 92 120 110 39
37 97 91 259 239 56 52 119 110 138 128 20 18 76 70 126 115 49 45 104 96 121
112 17 17 78 73 135 125 58 52 114 104 125 115 47 44 236 218 260 239 l26 23
-73 33 c-40 18 -100 46 -133 61 -56 26 -460 210 -604 275 -36 16 -94 43 -129
59 l-64 30 269 180 268 180 132 265 c221 447 365 742 361 745 -2 2 -23 -10
-48 -27 -119 -81 -542 -367 -775 -524 -143 -96 -382 -258 -531 -359 l-272
-183 -72 187 c-39 102 -75 195 -80 206 -5 11 -31 79 -58 150 -28 72 -81 209
-118 305 -156 405 -324 841 -385 1000 -26 69 -66 172 -89 230 -22 58 -76 196
-118 307 -42 112 -80 203 -83 203 -4 0 -11 -6 -16 -12z"/>
</g>
</svg>
